<?xml version="1.0" encoding="UTF-8"?>
<svg xmlns="http://www.w3.org/2000/svg" viewBox="0 0 1000 600" width="1000" height="600">
  <defs>
    <style>
      @import url('https://fonts.googleapis.com/css2?family=Indie+Flower&amp;display=swap');
      text { font-family: 'Indie Flower', cursive; }
    </style>
  </defs>

  <rect width="1000" height="600" fill="#ffffff"/>

  <!-- Title -->
  <text x="500" y="50" text-anchor="middle" font-size="32" fill="#000">Per-Fold Information Coefficient</text>
  <text x="500" y="78" text-anchor="middle" font-size="15" fill="#888">how well each model ranks the cross-section in each test period</text>

  <!-- Legend -->
  <g transform="translate(180, 100)">
    <rect x="0" y="0" width="14" height="14" fill="#dc2626"/>
    <text x="22" y="12" font-size="14" fill="#000">Linear</text>
    <text x="80" y="12" font-size="13" fill="#888">+0.006</text>

    <rect x="170" y="0" width="14" height="14" fill="#2563eb"/>
    <text x="192" y="12" font-size="14" fill="#000">Random Forest ★</text>
    <text x="320" y="12" font-size="13" fill="#888">+0.022</text>

    <rect x="395" y="0" width="14" height="14" fill="#000000"/>
    <text x="417" y="12" font-size="14" fill="#000">XGBoost</text>
    <text x="490" y="12" font-size="13" fill="#888">+0.013</text>

    <rect x="555" y="0" width="14" height="14" fill="#888888"/>
    <text x="577" y="12" font-size="14" fill="#000">LightGBM</text>
    <text x="660" y="12" font-size="13" fill="#888">+0.015</text>
  </g>
  <text x="500" y="135" text-anchor="middle" font-size="11" fill="#888">mean IC across folds shown next to each model</text>

  <!-- Y-axis -->
  <line x1="120" y1="160" x2="120" y2="450" stroke="#000" stroke-width="1.5"/>

  <!-- Horizontal grid lines -->
  <line x1="120" y1="160" x2="920" y2="160" stroke="#eee"/>
  <line x1="120" y1="220" x2="920" y2="220" stroke="#eee"/>
  <line x1="120" y1="380" x2="920" y2="380" stroke="#eee"/>

  <!-- Zero line (bold) -->
  <line x1="120" y1="320" x2="920" y2="320" stroke="#000" stroke-width="1.5"/>

  <!-- Y-axis labels -->
  <text x="112" y="165" text-anchor="end" font-size="13" fill="#444">+0.08</text>
  <text x="112" y="225" text-anchor="end" font-size="13" fill="#444">+0.05</text>
  <text x="112" y="325" text-anchor="end" font-size="14" fill="#000">0</text>
  <text x="112" y="385" text-anchor="end" font-size="13" fill="#444">-0.03</text>
  <text x="112" y="445" text-anchor="end" font-size="13" fill="#444">-0.06</text>

  <!-- Y axis title (rotated) -->
  <text transform="rotate(-90, 70, 305)" x="70" y="305" text-anchor="middle" font-size="14" fill="#444">Information Coefficient</text>

  <!-- ============================================ -->
  <!-- BARS: 0.01 IC = 20px above/below zero line y=320 -->
  <!-- ============================================ -->

  <!-- FOLD 1 -->
  <rect x="139" y="320" width="25" height="22" fill="#dc2626"/>
  <rect x="168" y="280" width="25" height="40" fill="#2563eb"/>
  <rect x="197" y="292" width="25" height="28" fill="#000000"/>
  <rect x="226" y="262" width="25" height="58" fill="#888888"/>

  <text x="195" y="475" text-anchor="middle" font-size="15" fill="#000">Fold 1</text>
  <text x="195" y="492" text-anchor="middle" font-size="11" fill="#888">2021 Feb–Aug</text>

  <!-- FOLD 2 -->
  <rect x="304" y="310" width="25" height="10" fill="#dc2626"/>
  <rect x="333" y="238" width="25" height="82" fill="#2563eb"/>
  <rect x="362" y="262" width="25" height="58" fill="#000000"/>
  <rect x="391" y="274" width="25" height="46" fill="#888888"/>

  <text x="360" y="475" text-anchor="middle" font-size="15" fill="#000">Fold 2</text>
  <text x="360" y="492" text-anchor="middle" font-size="11" fill="#888">2021–22 transition</text>

  <!-- FOLD 3 -->
  <rect x="469" y="160" width="25" height="160" fill="#dc2626"/>
  <text x="481" y="155" text-anchor="middle" font-size="11" fill="#dc2626">↑.087</text>
  <rect x="498" y="174" width="25" height="146" fill="#2563eb"/>
  <rect x="527" y="224" width="25" height="96" fill="#000000"/>
  <rect x="556" y="206" width="25" height="114" fill="#888888"/>

  <text x="525" y="475" text-anchor="middle" font-size="15" fill="#000">Fold 3</text>
  <text x="525" y="492" text-anchor="middle" font-size="11" fill="#888">2022 H1 (bear mkt)</text>

  <!-- FOLD 4 -->
  <rect x="634" y="310" width="25" height="10" fill="#dc2626"/>
  <rect x="663" y="320" width="25" height="42" fill="#2563eb"/>
  <rect x="692" y="320" width="25" height="44" fill="#000000"/>
  <rect x="721" y="320" width="25" height="68" fill="#888888"/>

  <text x="690" y="475" text-anchor="middle" font-size="15" fill="#000">Fold 4</text>
  <text x="690" y="492" text-anchor="middle" font-size="11" fill="#888">2022 H2–23 H1</text>

  <!-- FOLD 5 -->
  <rect x="799" y="320" width="25" height="116" fill="#dc2626"/>
  <rect x="828" y="320" width="25" height="10" fill="#2563eb"/>
  <rect x="857" y="320" width="25" height="10" fill="#000000"/>
  <rect x="886" y="320" width="25" height="2" fill="#888888"/>

  <text x="855" y="475" text-anchor="middle" font-size="15" fill="#000">Fold 5</text>
  <text x="855" y="492" text-anchor="middle" font-size="11" fill="#888">2023 (concentrated rally)</text>

  <!-- Annotation -->
  <text x="500" y="540" text-anchor="middle" font-size="14" fill="#666">factor models work in 2022 bear market · break in 2023 as cross-section narrows</text>
  <text x="500" y="570" text-anchor="middle" font-size="12" fill="#aaa">Random Forest is the only model with positive IC in 4 of 5 folds and the highest ICIR (0.58)</text>
</svg>
